NotoSans-CondensedItalic.ufo
<glyph name="uni023A" format="2">
  <advance width="404"/>
  <unicode hex="023A"/>
  <anchor x="146" y="0" name="bottom"/>
  <anchor x="284" y="715" name="top"/>
  <anchor x="480" y="714" name="topright"/>
  <outline>
    <contour>
      <point x="26" y="-76" type="line"/>
      <point x="79" y="-76" type="line"/>
      <point x="416" y="761" type="line"/>
      <point x="363" y="761" type="line"/>
    </contour>
    <component base="A"/>
  </outline>
</glyph>
<glyph name="archaicsampi" format="2">
  <advance width="428"/>
  <unicode hex="0373"/>
  <anchor x="159" y="0" name="bottom"/>
  <anchor x="320" y="760" name="top"/>
  <outline>
    <contour>
      <point x="111" y="0" type="line"/>
      <point x="188" y="0" type="line"/>
      <point x="333" y="688" type="line"/>
      <point x="454" y="688" type="line"/>
      <point x="469" y="760" type="line"/>
      <point x="151" y="760" type="line"/>
      <point x="136" y="688" type="line"/>
      <point x="257" y="688" type="line"/>
    </contour>
    <contour>
      <point x="59" y="496" type="line"/>
      <point x="134" y="496" type="line"/>
      <point x="191" y="760" type="line"/>
      <point x="115" y="760" type="line"/>
    </contour>
    <contour>
      <point x="374" y="496" type="line"/>
      <point x="449" y="496" type="line"/>
      <point x="506" y="760" type="line"/>
      <point x="430" y="760" type="line"/>
    </contour>
  </outline>
</glyph>
<glyph name="Phi" format="2">
  <advance width="572"/>
  <unicode hex="03A6"/>
  <anchor x="230" y="0" name="bottom"/>
  <anchor x="381" y="714" name="top"/>
  <outline>
    <contour>
      <point x="176" y="-10" type="line"/>
      <point x="254" y="-10" type="line"/>
      <point x="278" y="100" type="line"/>
      <point x="440" y="103"/>
      <point x="550" y="252"/>
      <point x="550" y="446" type="curve" smooth="yes"/>
      <point x="550" y="564"/>
      <point x="490" y="630"/>
      <point x="392" y="636" type="curve"/>
      <point x="410" y="724" type="line"/>
      <point x="332" y="724" type="line"/>
      <point x="314" y="636" type="line"/>
      <point x="145" y="631"/>
      <point x="42" y="483"/>
      <point x="42" y="292" type="curve" smooth="yes"/>
      <point x="42" y="169"/>
      <point x="100" y="107"/>
      <point x="200" y="100" type="curve"/>
    </contour>
    <contour>
      <point x="214" y="170" type="line"/>
      <point x="155" y="173"/>
      <point x="123" y="212"/>
      <point x="123" y="293" type="curve" smooth="yes"/>
      <point x="123" y="420"/>
      <point x="178" y="564"/>
      <point x="299" y="566" type="curve"/>
    </contour>
    <contour>
      <point x="292" y="170" type="curve"/>
      <point x="376" y="566" type="line"/>
      <point x="434" y="565"/>
      <point x="468" y="525"/>
      <point x="468" y="444" type="curve" smooth="yes"/>
      <point x="468" y="309"/>
      <point x="404" y="172"/>
    </contour>
  </outline>
</glyph>
<glyph name="uni03F0" format="2">
  <advance width="451"/>
  <unicode hex="03F0"/>
  <anchor x="170" y="0" name="bottom"/>
  <anchor x="282" y="529" name="top"/>
  <outline>
    <contour>
      <point x="365" y="-10" type="curve" smooth="yes"/>
      <point x="380" y="-10"/>
      <point x="398" y="-8"/>
      <point x="410" y="-3" type="curve"/>
      <point x="410" y="62" type="line"/>
      <point x="401" y="59"/>
      <point x="391" y="57"/>
      <point x="381" y="57" type="curve" smooth="yes"/>
      <point x="349" y="57"/>
      <point x="334" y="82"/>
      <point x="334" y="123" type="curve" smooth="yes"/>
      <point x="334" y="240"/>
      <point x="379" y="373"/>
      <point x="476" y="537" type="curve"/>
      <point x="399" y="536" type="line"/>
      <point x="136" y="203" type="line"/>
      <point x="165" y="268"/>
      <point x="188" y="347"/>
      <point x="188" y="421" type="curve" smooth="yes"/>
      <point x="188" y="498"/>
      <point x="157" y="547"/>
      <point x="83" y="547" type="curve" smooth="yes"/>
      <point x="67" y="547"/>
      <point x="46" y="544"/>
      <point x="34" y="539" type="curve"/>
      <point x="37" y="475" type="line"/>
      <point x="45" y="478"/>
      <point x="57" y="480"/>
      <point x="66" y="480" type="curve" smooth="yes"/>
      <point x="98" y="480"/>
      <point x="112" y="456"/>
      <point x="112" y="414" type="curve" smooth="yes"/>
      <point x="112" y="299"/>
      <point x="69" y="166"/>
      <point x="-30" y="0" type="curve"/>
      <point x="49" y="0" type="line"/>
      <point x="308" y="328" type="line"/>
      <point x="277" y="256"/>
      <point x="259" y="184"/>
      <point x="259" y="116" type="curve" smooth="yes"/>
      <point x="259" y="39"/>
      <point x="291" y="-10"/>
    </contour>
  </outline>
</glyph>
<glyph name="uni03F1" format="2">
  <advance width="414"/>
  <unicode hex="03F1"/>
  <anchor x="101" y="-240" name="bottom"/>
  <anchor x="264" y="529" name="top"/>
  <outline>
    <contour>
      <point x="187" y="-240" type="curve"/>
      <point x="258" y="-240" type="line"/>
      <point x="264" y="-227"/>
      <point x="270" y="-209"/>
      <point x="270" y="-191" type="curve" smooth="yes"/>
      <point x="270" y="-138"/>
      <point x="236" y="-122"/>
      <point x="176" y="-122" type="curve" smooth="yes"/>
      <point x="111" y="-122"/>
      <point x="86" y="-89"/>
      <point x="86" y="-24" type="curve" smooth="yes"/>
      <point x="86" y="-5"/>
      <point x="86" y="18"/>
      <point x="88" y="37" type="curve"/>
      <point x="90" y="37" type="line"/>
      <point x="107" y="14"/>
      <point x="137" y="-7"/>
      <point x="179" y="-7" type="curve" smooth="yes"/>
      <point x="332" y="-7"/>
      <point x="386" y="228"/>
      <point x="386" y="367" type="curve" smooth="yes"/>
      <point x="386" y="474"/>
      <point x="340" y="541"/>
      <point x="252" y="541" type="curve" smooth="yes"/>
      <point x="116" y="541"/>
      <point x="54" y="378"/>
      <point x="26" y="206" type="curve" smooth="yes"/>
      <point x="14" y="134"/>
      <point x="8" y="58"/>
      <point x="8" y="-10" type="curve" smooth="yes"/>
      <point x="8" y="-127"/>
      <point x="43" y="-189"/>
      <point x="147" y="-189" type="curve" smooth="yes"/>
      <point x="180" y="-189"/>
      <point x="191" y="-196"/>
      <point x="191" y="-215" type="curve" smooth="yes"/>
      <point x="191" y="-227"/>
      <point x="189" y="-234"/>
    </contour>
    <contour>
      <point x="173" y="58" type="curve" smooth="yes"/>
      <point x="138" y="58"/>
      <point x="109" y="82"/>
      <point x="96" y="110" type="curve"/>
      <point x="110" y="282"/>
      <point x="162" y="476"/>
      <point x="244" y="476" type="curve" smooth="yes"/>
      <point x="289" y="476"/>
      <point x="308" y="440"/>
      <point x="308" y="366" type="curve" smooth="yes"/>
      <point x="308" y="255"/>
      <point x="269" y="58"/>
    </contour>
  </outline>
</glyph>
<glyph name="uni1D24" format="2">
  <advance width="396"/>
  <unicode hex="1D24"/>
  <anchor x="154" y="0" name="bottom"/>
  <anchor x="313" y="765" name="top"/>
  <outline>
    <contour>
      <point x="159" y="-12" type="curve" smooth="yes"/>
      <point x="211" y="-12"/>
      <point x="259" y="7"/>
      <point x="291" y="34" type="curve"/>
      <point x="268" y="91" type="line"/>
      <point x="234" y="67"/>
      <point x="207" y="56"/>
      <point x="171" y="56" type="curve" smooth="yes"/>
      <point x="124" y="56"/>
      <point x="99" y="84"/>
      <point x="99" y="135" type="curve" smooth="yes"/>
      <point x="99" y="189"/>
      <point x="144" y="251"/>
      <point x="264" y="328" type="curve"/>
      <point x="278" y="400" type="line"/>
      <point x="400" y="481"/>
      <point x="450" y="555"/>
      <point x="450" y="635" type="curve" smooth="yes"/>
      <point x="450" y="715"/>
      <point x="399" y="765"/>
      <point x="311" y="765" type="curve" smooth="yes"/>
      <point x="258" y="765"/>
      <point x="211" y="746"/>
      <point x="178" y="719" type="curve"/>
      <point x="202" y="663" type="line"/>
      <point x="236" y="687"/>
      <point x="262" y="697"/>
      <point x="298" y="697" type="curve" smooth="yes"/>
      <point x="346" y="697"/>
      <point x="370" y="669"/>
      <point x="370" y="618" type="curve" smooth="yes"/>
      <point x="370" y="565"/>
      <point x="326" y="503"/>
      <point x="206" y="426" type="curve"/>
      <point x="191" y="353" type="line"/>
      <point x="69" y="272"/>
      <point x="20" y="198"/>
      <point x="20" y="118" type="curve" smooth="yes"/>
      <point x="20" y="38"/>
      <point x="70" y="-12"/>
    </contour>
  </outline>
</glyph>
<glyph name="uni1D7F" format="2">
  <advance width="414"/>
  <unicode hex="1D7F"/>
  <anchor x="151" y="0" name="bottom"/>
  <anchor x="263" y="529" name="top"/>
  <outline>
    <contour>
      <point x="-6" y="244" type="line"/>
      <point x="409" y="244" type="line"/>
      <point x="423" y="308" type="line"/>
      <point x="8" y="308" type="line"/>
    </contour>
    <component base="uni028A"/>
  </outline>
</glyph>
<glyph name="ll-middleWelsh" format="2">
  <advance width="382"/>
  <unicode hex="1EFB"/>
  <anchor x="39" y="0" name="bottom"/>
  <anchor x="200" y="760" name="top"/>
  <anchor x="303" y="265" name="center_1"/>
  <anchor x="112" y="265" name="center_2"/>
  <anchor x="466" y="760" name="topright_1"/>
  <anchor x="275" y="760" name="topright_2"/>
  <outline>
    <contour>
      <point x="73" y="596" type="line"/>
      <point x="449" y="596" type="line"/>
      <point x="459" y="644" type="line"/>
      <point x="83" y="644" type="line"/>
    </contour>
    <component base="l" xOffset="191"/>
    <component base="l"/>
  </outline>
</glyph>
<glyph name="minussuperior" format="2">
  <advance width="287"/>
  <unicode hex="207B"/>
  <outline>
    <contour>
      <point x="82" y="499" type="line"/>
      <point x="315" y="499" type="line"/>
      <point x="315" y="546" type="line"/>
      <point x="82" y="546" type="line"/>
    </contour>
  </outline>
</glyph>
<glyph name="response" format="2">
  <advance width="418"/>
  <unicode hex="211F"/>
  <anchor x="153" y="0" name="bottom"/>
  <anchor x="304" y="714" name="top"/>
  <anchor x="493" y="714" name="topright"/>
  <outline>
    <contour>
      <point x="54" y="-145" type="line"/>
      <point x="103" y="-145" type="line"/>
      <point x="389" y="803" type="line"/>
      <point x="173" y="857" type="line"/>
      <point x="162" y="814" type="line"/>
      <point x="332" y="773" type="line"/>
    </contour>
    <component base="R"/>
  </outline>
</glyph>
<glyph name="uni2DF5" format="2">
  <unicode hex="2DF5"/>
  <anchor x="57" y="536" name="_top"/>
  <anchor x="116" y="834" name="top"/>
  <anchor x="252" y="834" name="topright"/>
  <outline>
    <contour>
      <point x="21" y="616" type="curve" smooth="yes"/>
      <point x="37" y="616"/>
      <point x="54" y="621"/>
      <point x="65" y="627" type="curve"/>
      <point x="65" y="654" type="line"/>
      <point x="52" y="647"/>
      <point x="40" y="643"/>
      <point x="29" y="643" type="curve" smooth="yes"/>
      <point x="9" y="643"/>
      <point x="-1" y="656"/>
      <point x="-1" y="684" type="curve" smooth="yes"/>
      <point x="-1" y="732"/>
      <point x="21" y="807"/>
      <point x="68" y="807" type="curve" smooth="yes"/>
      <point x="144" y="807" type="line"/>
      <point x="99" y="620" type="line"/>
      <point x="133" y="620" type="line"/>
      <point x="178" y="807" type="line"/>
      <point x="232" y="807" type="line"/>
      <point x="238" y="834" type="line"/>
      <point x="68" y="834" type="line" smooth="yes"/>
      <point x="-6" y="834"/>
      <point x="-37" y="742"/>
      <point x="-37" y="681" type="curve" smooth="yes"/>
      <point x="-37" y="638"/>
      <point x="-17" y="616"/>
    </contour>
  </outline>
</glyph>
<glyph name="uniA65C" format="2">
  <advance width="620"/>
  <unicode hex="A65C"/>
  <outline>
    <contour>
      <point x="202" y="0" type="line"/>
      <point x="496" y="0" type="line"/>
      <point x="502" y="67" type="line"/>
      <point x="220" y="67" type="line"/>
    </contour>
    <component base="uniA656"/>
  </outline>
</glyph>
<glyph name="uniA665" format="2">
  <advance width="497"/>
  <unicode hex="A665"/>
  <anchor x="137" y="0" name="bottom"/>
  <anchor x="249" y="529" name="top"/>
  <outline>
    <contour>
      <point x="207" y="0" type="line"/>
      <point x="284" y="0" type="line"/>
      <point x="383" y="468" type="line"/>
      <point x="527" y="468" type="line"/>
      <point x="542" y="536" type="line"/>
      <point x="321" y="536" type="line"/>
    </contour>
    <component base="afii10077"/>
  </outline>
</glyph>
<glyph name="uniA684" format="2">
  <advance width="773"/>
  <unicode hex="A684"/>
  <anchor x="139" y="0" name="bottom_1"/>
  <anchor x="517" y="0" name="bottom_2"/>
  <anchor x="290" y="714" name="top_1"/>
  <anchor x="669" y="714" name="top_2"/>
  <outline>
    <contour>
      <point x="211" y="335" type="line"/>
      <point x="464" y="335" type="line"/>
      <point x="480" y="407" type="line"/>
      <point x="227" y="407" type="line"/>
    </contour>
    <component base="afii10025"/>
    <component base="afii10028" xOffset="373"/>
  </outline>
</glyph>
<glyph name="uniA748" format="2">
  <advance width="337"/>
  <unicode hex="A748"/>
  <anchor x="112" y="0" name="bottom"/>
  <anchor x="194" y="357" name="center"/>
  <anchor x="264" y="714" name="top"/>
  <anchor x="355" y="714" name="topright"/>
  <outline>
    <contour>
      <point x="66" y="566" type="line"/>
      <point x="297" y="566" type="line"/>
      <point x="309" y="623" type="line"/>
      <point x="77" y="623" type="line"/>
    </contour>
    <component base="L"/>
  </outline>
</glyph>
<glyph name="uniA750" format="2">
  <advance width="404"/>
  <unicode hex="A750"/>
  <anchor x="146" y="0" name="bottom"/>
  <anchor x="298" y="714" name="top"/>
  <anchor x="479" y="714" name="topright"/>
  <outline>
    <contour>
      <point x="-29" y="123" type="line"/>
      <point x="202" y="123" type="line"/>
      <point x="214" y="180" type="line"/>
      <point x="-18" y="180" type="line"/>
    </contour>
    <component base="P"/>
  </outline>
</glyph>
<glyph name="uniA75C" format="2">
  <advance width="519"/>
  <unicode hex="A75C"/>
  <outline>
    <contour>
      <point x="9" y="152" type="line"/>
      <point x="455" y="152" type="line"/>
      <point x="470" y="223" type="line"/>
      <point x="126" y="223" type="line"/>
      <point x="126" y="226" type="line"/>
      <point x="261" y="358" type="line" smooth="yes"/>
      <point x="357" y="444"/>
      <point x="392" y="509"/>
      <point x="392" y="586" type="curve" smooth="yes"/>
      <point x="392" y="673"/>
      <point x="338" y="724"/>
      <point x="256" y="724" type="curve" smooth="yes"/>
      <point x="195" y="724"/>
      <point x="147" y="701"/>
      <point x="103" y="658" type="curve"/>
      <point x="137" y="605" type="line"/>
      <point x="173" y="636"/>
      <point x="201" y="653"/>
      <point x="241" y="653" type="curve" smooth="yes"/>
      <point x="286" y="653"/>
      <point x="311" y="626"/>
      <point x="311" y="573" type="curve" smooth="yes"/>
      <point x="311" y="513"/>
      <point x="281" y="467"/>
      <point x="190" y="380" type="curve" smooth="yes"/>
      <point x="19" y="211" type="line"/>
    </contour>
    <contour>
      <point x="263" y="0" type="line"/>
      <point x="340" y="0" type="line"/>
      <point x="414" y="351" type="line"/>
      <point x="338" y="351" type="line"/>
    </contour>
  </outline>
</glyph>
<glyph name="uniA773" format="2">
  <advance width="757"/>
  <unicode hex="A773"/>
  <anchor x="251" y="0" name="bottom"/>
  <anchor x="363" y="529" name="top"/>
  <anchor x="649" y="529" name="topright"/>
  <outline>
    <contour>
      <point x="450" y="-157" type="line"/>
      <point x="512" y="-157" type="line"/>
      <point x="737" y="228" type="line"/>
      <point x="675" y="228" type="line"/>
    </contour>
    <contour>
      <point x="484" y="0" type="line"/>
      <point x="699" y="0" type="line"/>
      <point x="713" y="68" type="line"/>
      <point x="498" y="68" type="line"/>
    </contour>
    <component base="m"/>
  </outline>
</glyph>
<glyph name="uniA774" format="2">
  <advance width="555"/>
  <unicode hex="A774"/>
  <anchor x="151" y="0" name="bottom"/>
  <anchor x="264" y="531" name="top"/>
  <anchor x="446" y="529" name="topright"/>
  <outline>
    <contour>
      <point x="247" y="-157" type="line"/>
      <point x="309" y="-157" type="line"/>
      <point x="534" y="228" type="line"/>
      <point x="472" y="228" type="line"/>
    </contour>
    <contour>
      <point x="280" y="0" type="line"/>
      <point x="495" y="0" type="line"/>
      <point x="509" y="68" type="line"/>
      <point x="294" y="68" type="line"/>
    </contour>
    <component base="n"/>
  </outline>
</glyph>
<glyph name="uniA781" format="2">
  <advance width="212"/>
  <unicode hex="A781"/>
  <outline>
    <contour>
      <point x="-50" y="-240" type="line"/>
      <point x="30" y="-240" type="line"/>
      <point x="195" y="536" type="line"/>
      <point x="115" y="536" type="line"/>
    </contour>
  </outline>
</glyph>
<glyph name="uniA791" format="2">
  <advance width="421"/>
  <unicode hex="A791"/>
  <anchor x="151" y="0" name="bottom"/>
  <anchor x="264" y="531" name="top"/>
  <anchor x="446" y="529" name="topright"/>
  <outline>
    <contour>
      <point x="225" y="-186" type="line"/>
      <point x="300" y="-186" type="line"/>
      <point x="354" y="68" type="line"/>
      <point x="307" y="68" type="line"/>
      <point x="264" y="0" type="line"/>
    </contour>
    <component base="n"/>
  </outline>
</glyph>
<glyph name="uniAB42" format="2">
  <advance width="631"/>
  <unicode hex="AB42"/>
  <anchor x="373" y="536" name="bottom"/>
  <anchor x="261" y="7" name="top"/>
  <outline>
    <contour>
      <point x="296" y="245" type="line"/>
      <point x="549" y="245" type="line"/>
      <point x="564" y="303" type="line"/>
      <point x="311" y="303" type="line"/>
    </contour>
    <component base="oe" xScale="-1" yScale="-1" xOffset="633" yOffset="536"/>
  </outline>
</glyph>
<glyph name="uniAB44" format="2">
  <advance width="689"/>
  <unicode hex="AB44"/>
  <anchor x="430" y="0" name="bottom"/>
  <anchor x="503" y="265" name="center"/>
  <anchor x="542" y="529" name="top"/>
  <anchor x="725" y="529" name="topright"/>
  <outline>
    <contour>
      <point x="335" y="-62" type="line"/>
      <point x="668" y="561" type="line"/>
      <point x="631" y="583" type="line"/>
      <point x="299" y="-41" type="line"/>
    </contour>
    <component base="uniAB43"/>
  </outline>
</glyph>
<glyph name="uniFE22" format="2">
  <unicode hex="FE22"/>
  <anchor x="53" y="536" name="_top"/>
  <outline>
    <contour>
      <point x="-208" y="607" type="curve"/>
      <point x="-163" y="607" type="line"/>
      <point x="-149" y="646"/>
      <point x="-120" y="670"/>
      <point x="-68" y="670" type="curve" smooth="yes"/>
      <point x="-17" y="670"/>
      <point x="28" y="654"/>
      <point x="74" y="638" type="curve"/>
      <point x="88" y="701" type="line"/>
      <point x="44" y="717"/>
      <point x="-2" y="732"/>
      <point x="-57" y="732" type="curve" smooth="yes"/>
      <point x="-126" y="732"/>
      <point x="-180" y="694"/>
    </contour>
  </outline>
</glyph>
<glyph name="questiondown.sc" format="2">
  <advance width="252"/>
  <outline>
    <contour>
      <point x="56" y="-152" type="curve" smooth="yes"/>
      <point x="94" y="-152"/>
      <point x="132" y="-138"/>
      <point x="168" y="-112" type="curve"/>
      <point x="154" y="-53" type="line"/>
      <point x="129" y="-70"/>
      <point x="103" y="-85"/>
      <point x="73" y="-85" type="curve" smooth="yes"/>
      <point x="44" y="-85"/>
      <point x="28" y="-70"/>
      <point x="28" y="-39" type="curve" smooth="yes"/>
      <point x="28" y="7"/>
      <point x="47" y="34"/>
      <point x="109" y="103" type="curve" smooth="yes"/>
      <point x="152" y="149"/>
      <point x="167" y="185"/>
      <point x="181" y="261" type="curve"/>
      <point x="120" y="261" type="line"/>
      <point x="108" y="196"/>
      <point x="92" y="170"/>
      <point x="45" y="122" type="curve" smooth="yes"/>
      <point x="-8" y="66"/>
      <point x="-47" y="15"/>
      <point x="-47" y="-54" type="curve" smooth="yes"/>
      <point x="-47" y="-115"/>
      <point x="-10" y="-152"/>
    </contour>
    <contour>
      <point x="162" y="325" type="curve" smooth="yes"/>
      <point x="202" y="325"/>
      <point x="223" y="359"/>
      <point x="223" y="396" type="curve" smooth="yes"/>
      <point x="223" y="420"/>
      <point x="208" y="433"/>
      <point x="183" y="433" type="curve" smooth="yes"/>
      <point x="151" y="433"/>
      <point x="126" y="404"/>
      <point x="126" y="364" type="curve" smooth="yes"/>
      <point x="126" y="339"/>
      <point x="140" y="325"/>
    </contour>
  </outline>
</glyph>
<glyph name="uni030103060308" format="2">
  <anchor x="263" y="529" name="_top"/>
  <anchor x="341" y="960" name="top"/>
  <outline>
    <contour>
      <point x="299" y="716" type="curve" smooth="yes"/>
      <point x="375" y="716"/>
      <point x="418" y="755"/>
      <point x="436" y="821" type="curve"/>
      <point x="388" y="821" type="line"/>
      <point x="372" y="779"/>
      <point x="346" y="766"/>
      <point x="303" y="766" type="curve" smooth="yes"/>
      <point x="256" y="766"/>
      <point x="242" y="782"/>
      <point x="241" y="821" type="curve"/>
      <point x="194" y="821" type="line"/>
      <point x="196" y="755"/>
      <point x="221" y="716"/>
    </contour>
    <contour>
      <point x="207" y="602" type="curve" smooth="yes"/>
      <point x="235" y="602"/>
      <point x="255" y="630"/>
      <point x="255" y="665" type="curve" smooth="yes"/>
      <point x="255" y="686"/>
      <point x="244" y="697"/>
      <point x="226" y="697" type="curve" smooth="yes"/>
      <point x="196" y="697"/>
      <point x="176" y="670"/>
      <point x="176" y="636" type="curve" smooth="yes"/>
      <point x="176" y="613"/>
      <point x="186" y="602"/>
    </contour>
    <contour>
      <point x="356" y="602" type="curve" smooth="yes"/>
      <point x="384" y="602"/>
      <point x="404" y="630"/>
      <point x="404" y="665" type="curve" smooth="yes"/>
      <point x="404" y="686"/>
      <point x="394" y="697"/>
      <point x="375" y="697" type="curve" smooth="yes"/>
      <point x="345" y="697"/>
      <point x="325" y="670"/>
      <point x="325" y="636" type="curve" smooth="yes"/>
      <point x="325" y="613"/>
      <point x="336" y="602"/>
    </contour>
    <contour>
      <point x="279" y="831" type="line"/>
      <point x="324" y="831" type="line"/>
      <point x="362" y="859"/>
      <point x="429" y="916"/>
      <point x="459" y="952" type="curve"/>
      <point x="459" y="960" type="line"/>
      <point x="371" y="960" type="line"/>
      <point x="345" y="919"/>
      <point x="314" y="875"/>
      <point x="280" y="840" type="curve"/>
    </contour>
  </outline>
</glyph>
<glyph name="uni1FDD0306" format="2">
  <advance width="415"/>
  <anchor x="256" y="529" name="_top"/>
  <anchor x="313" y="871" name="top"/>
  <outline>
    <contour>
      <point x="278" y="596" type="curve" smooth="yes"/>
      <point x="355" y="596"/>
      <point x="397" y="635"/>
      <point x="415" y="703" type="curve"/>
      <point x="367" y="703" type="line"/>
      <point x="352" y="661"/>
      <point x="325" y="646"/>
      <point x="282" y="646" type="curve" smooth="yes"/>
      <point x="234" y="646"/>
      <point x="220" y="664"/>
      <point x="219" y="703" type="curve"/>
      <point x="172" y="703" type="line"/>
      <point x="174" y="634"/>
      <point x="200" y="596"/>
    </contour>
    <contour>
      <point x="261" y="715" type="curve"/>
      <point x="267" y="745" type="line"/>
      <point x="249" y="748"/>
      <point x="236" y="762"/>
      <point x="236" y="781" type="curve" smooth="yes"/>
      <point x="236" y="785"/>
      <point x="236" y="788"/>
      <point x="237" y="791" type="curve"/>
      <point x="262" y="791"/>
      <point x="282" y="813"/>
      <point x="282" y="839" type="curve" smooth="yes"/>
      <point x="282" y="857"/>
      <point x="272" y="871"/>
      <point x="249" y="871" type="curve" smooth="yes"/>
      <point x="216" y="871"/>
      <point x="197" y="831"/>
      <point x="197" y="795" type="curve" smooth="yes"/>
      <point x="197" y="747"/>
      <point x="220" y="722"/>
    </contour>
    <contour>
      <point x="337" y="719" type="curve"/>
      <point x="375" y="719" type="line"/>
      <point x="377" y="730" type="line"/>
      <point x="375" y="780"/>
      <point x="374" y="828"/>
      <point x="375" y="865" type="curve"/>
      <point x="305" y="865" type="line"/>
      <point x="304" y="855" type="line"/>
      <point x="309" y="814"/>
      <point x="322" y="763"/>
    </contour>
  </outline>
</glyph>
